<svg xmlns="http://www.w3.org/2000/svg" version="1.1" xmlns:xlink="http://www.w3.org/1999/xlink" xmlns:svgjs="http://svgjs.com/svgjs" width="512" height="512" x="0" y="0" viewBox="0 0 24 24" style="enable-background:new 0 0 512 512" xml:space="preserve" class=""><g><path d="M19.5 0h-15A4.505 4.505 0 0 0 0 4.5v15A4.505 4.505 0 0 0 4.5 24h15a4.505 4.505 0 0 0 4.5-4.5v-15A4.505 4.505 0 0 0 19.5 0Zm-15 3h15A1.5 1.5 0 0 1 21 4.5v15a1.492 1.492 0 0 1-.44 1.06l-8.732-8.732a4 4 0 0 0-5.656 0L3 15V4.5A1.5 1.5 0 0 1 4.5 3Z" fill="#ffffff" data-original="#000000" class=""></path><circle cx="15.5" cy="7.5" r="2.5" fill="#ffffff" data-original="#000000" class=""></circle></g></svg>