<svg xmlns="http://www.w3.org/2000/svg" version="1.1" xmlns:xlink="http://www.w3.org/1999/xlink" xmlns:svgjs="http://svgjs.com/svgjs" width="512" height="512" x="0" y="0" viewBox="0 0 24 24" style="enable-background:new 0 0 512 512" xml:space="preserve" class=""><g><path d="M18.5 24h-13A5.506 5.506 0 0 1 0 18.5v-13A5.506 5.506 0 0 1 5.5 0h13A5.506 5.506 0 0 1 24 5.5v13a5.506 5.506 0 0 1-5.5 5.5zM5.5 3A2.5 2.5 0 0 0 3 5.5v13A2.5 2.5 0 0 0 5.5 21h13a2.5 2.5 0 0 0 2.5-2.5v-13A2.5 2.5 0 0 0 18.5 3zm2.492 6.339v5.322a1.337 1.337 0 0 0 2 1.161l5.327-2.661a1.337 1.337 0 0 0 0-2.322L9.992 8.178a1.337 1.337 0 0 0-2 1.161z" fill="#ffffff" data-original="#000000" class=""></path></g></svg>